<?xml version="1.0" standalone="no"?><!DOCTYPE svg PUBLIC "-//W3C//DTD SVG 1.1//EN" "http://www.w3.org/Graphics/SVG/1.1/DTD/svg11.dtd"><svg t="1555820805795" class="icon" style="" viewBox="0 0 1024 1024" version="1.1" xmlns="http://www.w3.org/2000/svg" p-id="1974" xmlns:xlink="http://www.w3.org/1999/xlink" width="200" height="200"><defs><style type="text/css"></style></defs><path d="M85.717141 158.64068c0-29.169415 24.051974-53.221389 53.22139-53.22139h266.61869V52.709645C405.557221 23.54023 429.097451 0 458.778611 0h106.442778c29.169415 0 53.221389 23.54023 53.22139 52.709645v53.221389h266.61869c29.169415 0 53.221389 23.54023 53.22139 52.709646v53.221389H85.717141V158.64068z m799.344328 159.152423V970.778611c0 29.169415-24.051974 53.221389-53.221389 53.221389h-639.68016c-29.681159 0-53.221389-23.54023-53.221389-53.221389v-706.206897h746.122938v53.221389zM352.335832 423.724138c0-29.169415-24.051974-53.221389-53.221389-53.221389S245.893053 394.554723 245.893053 423.724138V864.847576c0 29.169415 24.051974 52.709645 53.22139 52.709645 29.681159 0 53.221389-23.54023 53.221389-52.709645V423.724138z m212.885557 0c0-29.169415-24.051974-53.221389-53.221389-53.221389-29.681159 0-53.221389 24.051974-53.221389 53.221389V864.847576c0 29.169415 24.051974 52.709645 53.221389 52.709645s53.221389-23.54023 53.221389-52.709645V423.724138z m213.397302 0c0-29.169415-24.051974-53.221389-53.22139-53.221389-29.681159 0-53.221389 24.051974-53.221389 53.221389V864.847576c0 29.169415 24.051974 52.709645 53.221389 52.709645s53.221389-23.54023 53.22139-52.709645V423.724138z" p-id="1975" fill="#6b6b6b"></path></svg>