<?xml version="1.0" standalone="no"?><!DOCTYPE svg PUBLIC "-//W3C//DTD SVG 1.1//EN" "http://www.w3.org/Graphics/SVG/1.1/DTD/svg11.dtd"><svg t="1555164105823" class="icon" style="" viewBox="0 0 1024 1024" version="1.1" xmlns="http://www.w3.org/2000/svg" p-id="2834" xmlns:xlink="http://www.w3.org/1999/xlink" width="200" height="200"><defs><style type="text/css"></style></defs><path d="M724.992 58.026667c-84.309333 0-162.474667 42.325333-214.016 111.957333C459.434667 100.352 380.928 58.026667 296.96 58.026667 145.066667 58.026667 21.504 193.194667 21.504 359.082667c0 98.986667 44.373333 168.277333 79.872 224.256C204.8 745.472 464.554667 947.2 475.477333 955.733333c10.581333 8.192 22.869333 12.288 35.498667 12.288 12.288 0 24.917333-4.096 35.157333-12.288 10.922667-8.533333 271.018667-210.261333 374.101333-372.394667 35.498667-55.978667 79.872-125.269333 79.872-224.256C1000.106667 193.194667 876.544 58.026667 724.992 58.026667L724.992 58.026667 724.992 58.026667 724.992 58.026667zM724.992 58.026667" p-id="2835" fill="#6B6B6B"></path></svg>