<?xml version="1.0" standalone="no"?><!DOCTYPE svg PUBLIC "-//W3C//DTD SVG 1.1//EN" "http://www.w3.org/Graphics/SVG/1.1/DTD/svg11.dtd"><svg t="1555164243018" class="icon" style="" viewBox="0 0 1024 1024" version="1.1" xmlns="http://www.w3.org/2000/svg" p-id="3611" xmlns:xlink="http://www.w3.org/1999/xlink" width="200" height="200"><defs><style type="text/css"></style></defs><path d="M768 685.994667q52.010667 0 88.021333 36.992t36.010667 86.997333q0 52.010667-36.992 89.002667t-86.997333 36.992-86.997333-36.992-36.992-89.002667q0-20.010667 2.005333-27.989333l-301.994667-176q-38.016 34.005333-88.021333 34.005333-52.010667 0-89.984-38.016t-38.016-89.984 38.016-89.984 89.984-38.016q50.005333 0 88.021333 34.005333l299.989333-173.994667q-4.010667-20.010667-4.010667-29.994667 0-52.010667 38.016-89.984t89.984-38.016 89.984 38.016 38.016 89.984-38.016 89.984-89.984 38.016q-48 0-88.021333-36.010667l-299.989333 176q4.010667 20.010667 4.010667 29.994667t-4.010667 29.994667l304 176q36.010667-32 84.010667-32z" p-id="3612" fill="#6B6B6B"></path></svg>